<svg width="505" height="557" viewBox="0 0 505 557" fill="none" xmlns="http://www.w3.org/2000/svg">
<circle cx="198" cy="469" r="87" fill="url(#paint0_linear_1810_415)"/>
<path d="M138.5 532.5C141 526.5 155.562 519.927 168.53 513.875H192.305C209.164 517.333 240.499 545.189 233 548.5C194.5 565.5 158.5 551 138.5 532.5Z" fill="#564D9A"/>
<path d="M224.917 441.978L221.891 464.024C221.891 464.024 216.704 497.308 212.382 499.902C208.059 502.496 192.497 501.631 192.497 501.631C190.192 505.162 190.004 507.955 192.065 514.599C192.497 522.813 174.774 521.948 168.722 514.167C171.162 501.021 171.431 493.521 170.019 480.018C159.645 475.695 155.754 457.539 168.722 458.836V435.926L224.917 441.978Z" fill="#FCE2BC"/>
<path d="M174.52 417.413C199.734 411.362 241.09 426.493 241.09 440.324C241.63 452.086 239.393 457.215 229.851 463.236C227.622 469.651 225.396 472.386 220.341 476.204L221.638 463.236C214.595 457.401 196.032 434.505 177.114 447.674C175.831 456.705 176.332 461.492 177.546 471.017C171.494 467.127 172.359 459.346 165.442 458.481C162.937 458.911 162.057 459.27 161.12 461.507C159.678 471.574 159.823 473.611 171.062 481.824V490.9H169.765C154.993 487.491 144.866 439.603 164.402 422.571L164.37 422.551C160.314 420.074 150.142 413.862 151.866 405.669C153.594 397.454 161.12 391.404 174.52 397.455C182.989 401.279 186.483 410.784 174.52 417.413Z" fill="#33221E"/>
<path d="M174.52 417.413C199.734 411.362 241.09 426.493 241.09 440.324C241.63 452.086 239.393 457.215 229.851 463.236C227.622 469.651 225.396 472.386 220.341 476.204L221.638 463.236C214.595 457.401 196.032 434.505 177.114 447.674C175.831 456.705 176.332 461.492 177.546 471.017C171.494 467.127 172.359 459.346 165.442 458.481C162.937 458.911 162.057 459.27 161.12 461.507C159.678 471.574 159.823 473.611 171.062 481.824V490.9H169.765C154.993 487.491 144.866 439.603 164.402 422.571M174.52 417.413C186.483 410.784 182.989 401.279 174.52 397.455C161.12 391.404 153.594 397.454 151.866 405.669C150.137 413.884 160.367 420.107 164.402 422.571M174.52 417.413C170.509 418.376 167.16 420.166 164.402 422.571" stroke="#33221E"/>
<path d="M163.537 422.958C165.266 417.77 173.768 416.474 177.802 416.474" stroke="#888888" stroke-linecap="round"/>
<g style="mix-blend-mode:multiply">
<circle cx="198" cy="469" r="87" fill="#717171"/>
</g>
<circle cx="307" cy="278" r="87" fill="url(#paint1_linear_1810_415)"/>
<path d="M246 340C252 333.167 271 327.001 288.5 327H312C342.102 332.207 361.909 345.126 359.5 347C328 371.5 279 372.5 246 340Z" fill="#3EAFA9"/>
<path d="M352.641 243.338V268C352.641 268 350.935 302 338.142 310.338C325.349 318.676 315.141 312.338 315.141 312.338C312.475 316.421 312.258 319.652 314.642 327.338C315.141 336.838 294.642 335.838 287.641 326.838C290.463 311.632 290.775 302.957 289.141 287.338C277.142 282.338 272.642 261.338 287.641 262.838V236.338L352.641 243.338Z" fill="#FEC99B"/>
<path d="M275.435 234.348C270.935 251.348 264.935 281.848 293.935 299.348C293.626 294.916 293.02 292.528 291.435 288.348C273.435 278.348 276.935 264.848 283.435 262.848C289.935 262.848 290.935 280.348 295.435 281.848C298.935 281.848 294.783 254.157 298.435 252.348C302.086 250.538 368.435 284.348 380.435 252.848C376.268 253.681 367.235 254.748 364.435 252.348C368.768 250.514 377.335 245.548 376.935 240.348C372.008 241.247 369.217 241.232 363.935 240.348C338.935 196.348 288.235 208.148 283.435 219.348V212.348C280.768 212.348 275.935 214.648 277.935 223.848L270.935 215.848C269.753 223.468 270.891 227.491 275.435 234.348Z" fill="#BB926B" stroke="#BB926B" stroke-linecap="round"/>
<path d="M336 291.516C330.971 288.677 329.4 275.935 330.133 270L325 293L336 291.516Z" fill="url(#paint2_linear_1810_415)"/>
<path d="M336 291.516C330.971 288.677 329.4 275.935 330.133 270L325 293L336 291.516Z" fill="url(#paint3_linear_1810_415)"/>
<path d="M336 291.516C330.971 288.677 329.4 275.935 330.133 270L325 293L336 291.516Z" fill="url(#paint4_linear_1810_415)"/>
<circle cx="370" cy="221" r="17" fill="#3EAFA9"/>
<path d="M362 221.657L366.95 226.607L377.556 216" stroke="white" stroke-width="2" stroke-linecap="round" stroke-linejoin="round"/>
<circle cx="198" cy="87" r="87" fill="url(#paint5_linear_1810_415)"/>
<path d="M152.008 139.839C149.008 139.839 143.008 151.5 152.008 161C160.841 146.833 170.508 117.338 191.508 120.338V110.338C186.008 110.505 175.008 108.338 171.508 103.338C166.008 89.8379 170.208 57.4379 177.008 51.8379C179.508 57.3379 187.008 64.3379 194.508 64.3379C202.341 62.6712 218.008 61.3379 218.008 69.3379C215.737 77.0956 215.149 81.4369 214.508 89.8379C218.008 85.5046 230.508 73.3379 234.008 76.8379C239.008 86.8379 225.208 98.0379 220.008 96.8379C220.508 100.338 212.508 107.338 212.508 113.338V127.338C203.684 133.641 204.14 140.376 207.53 144.838C210.863 149.226 217.033 151.416 220.008 148.838C226.008 154.838 239.008 160.798 251.508 155.338C257.008 150.172 266.508 139.039 260.508 135.838C276.508 127.338 272.108 94.2381 260.508 91.839C267.508 86.8379 261.108 64.3379 251.508 64.3379C263.008 41.8379 238.708 24.2381 223.508 31.8389C200.008 -29.1618 99.5078 43.3379 150.009 67.3389C145.509 73.0056 144.008 85.839 152.008 91.839C138.009 98.839 132.409 125.839 152.008 139.839Z" fill="#282333"/>
<path d="M212.508 127.338V113.338C212.508 107.338 220.508 100.338 220.008 96.8379C225.208 98.0379 239.008 86.8379 234.008 76.8379C230.508 73.3379 218.008 85.5046 214.508 89.8379C215.149 81.4369 215.737 77.0956 218.008 69.3379C218.008 61.3379 202.341 62.6712 194.508 64.3379C187.008 64.3379 179.508 57.3379 177.008 51.8379C170.208 57.4379 166.008 89.8379 171.508 103.338C175.008 108.338 186.008 110.505 191.508 110.338V120.338V123.338C166.008 151.338 195.008 161.338 207.53 144.838C204.14 140.376 203.684 133.641 212.508 127.338Z" fill="#9F6751"/>
<path d="M251.508 155.338C239.008 160.798 226.008 154.838 220.008 148.838C217.033 151.416 210.863 149.226 207.53 144.838C195.008 161.338 166.008 151.338 191.508 123.338V120.338C170.508 117.338 160.841 146.833 152.008 161C178.5 176.661 218.5 181.5 251.508 155.338Z" fill="#FD9CB3"/>
<circle cx="261" cy="30" r="17" fill="#3EAFA9"/>
<path d="M253 30.6569L257.95 35.6066L268.556 25" stroke="white" stroke-width="2" stroke-linecap="round" stroke-linejoin="round"/>
<circle cx="418" cy="87" r="87" fill="#160C5C"/>
<path d="M476.5 107.5H359L375 163C433 192 474.5 159 492.5 132L476.5 107.5Z" fill="#0C0538"/>
<path d="M353.209 104.176V65.6962C353.209 63.3752 354.253 59.5456 358.431 62.7949C367.436 70.0757 389.689 79.8997 407.254 61.5827C407.55 61.2738 408.015 61.1713 408.406 61.3454L476.632 91.7318C476.744 91.7816 476.844 91.8492 476.929 91.9369C479.769 94.8529 484.074 101.78 480.003 107.643C479.821 107.905 479.514 108.05 479.196 108.042L354.186 105.175C353.643 105.163 353.209 104.719 353.209 104.176Z" fill="#F3F3F3"/>
<path d="M479.085 114.434H360.432C360.299 114.434 360.169 114.41 360.048 114.353C354.994 111.996 349.764 100.101 355.514 97.421C361.308 94.7204 390.272 94.606 396.111 97.3841C396.166 97.4102 396.214 97.4287 396.272 97.4454C406.526 100.387 428.508 106.221 435.092 106.221C447.174 107.16 472.499 108.028 480.739 104.347C481.258 104.115 481.887 104.29 482.105 104.815C483.256 107.58 483.901 112.208 479.499 114.341C479.371 114.403 479.228 114.434 479.085 114.434Z" fill="#CDD2E1"/>
<path d="M424.467 70.3398L422.373 75.1239" stroke="#D4D9E6" stroke-width="3" stroke-linecap="square"/>
<path d="M432.937 74.0469L430.843 78.8309" stroke="#D4D9E6" stroke-width="3" stroke-linecap="square"/>
<path d="M441.407 77.7539L439.313 82.538" stroke="#D4D9E6" stroke-width="3" stroke-linecap="square"/>
<g style="mix-blend-mode:hard-light" opacity="0.05">
<path d="M407.469 113.799L408.039 61L477.339 91.9222C479.82 95.0438 484.078 101.976 481.263 104.731C482.591 107.066 483.966 112.303 478.835 114.569L407.469 113.799Z" fill="black"/>
</g>
<circle cx="87" cy="278" r="87" fill="#3EAFA9"/>
<path d="M84 364.5L20 277L102 231L161.5 322C150 340.5 130 364.5 84 364.5Z" fill="#2C8A85"/>
<path d="M148.018 314H102.518L24.018 265C16.018 265 17.6847 273 19.518 277L100.018 327H141.518C146.718 325.4 148.018 317.667 148.018 314Z" fill="#F3F3F3"/>
<path fill-rule="evenodd" clip-rule="evenodd" d="M62.018 213.5L82 226V258.5L115.5 290.5H121.518L98.018 262.5V237L102.518 230.5L66.018 204L60.018 211.5L62.018 213.5ZM142.38 309H102.518L57 279.5L43.018 239.25L24.018 265L102.518 314H148.018L142.38 309Z" fill="black"/>
<path d="M62.018 213.5L43.018 239.25L57 279.5L102.518 309H142.38L121.518 290.5H115.5L82 258.5V226L62.018 213.5Z" fill="#232323"/>
<circle cx="418" cy="469" r="87" fill="#3C7774"/>
<path d="M431 555L372 502L465 462.5L496 507.5C485.5 530 461.5 550.5 431 555Z" fill="#31625F"/>
<path fill-rule="evenodd" clip-rule="evenodd" d="M385 492.5L386.088 493.5L460.088 454L459.088 451C454.588 443 443.688 431 442.088 431C440.588 428.833 437.288 423.2 436.088 418C431.134 421.302 422.075 426.841 415.5 429.514C422.497 443.244 405.913 478 385 492.5Z" fill="#FB4A59"/>
<path d="M383.087 489.5L385 492.5C405.913 478 422.497 443.244 415.5 429.514C412.783 430.619 410.491 431.234 409.087 431C414.088 464.5 381.088 481 383.087 489.5Z" fill="#F82F40"/>
<path fill-rule="evenodd" clip-rule="evenodd" d="M466.317 463L459.817 452L404.817 483.5C395.317 487.167 375.417 494.3 371.817 493.5C369.817 497.333 368.817 503.5 372.317 505.5C383.65 506.333 396.317 502.5 416.317 492.5L466.317 463Z" fill="#FFF2E3"/>
<path d="M371.817 493.5C375.417 494.3 395.317 487.167 404.817 483.5L384.817 484.5C379.817 484.5 373.121 491 371.817 493.5Z" fill="#FFE5C4"/>
<g style="mix-blend-mode:darken">
<path d="M402 499L397 486.448L400 485L407 497.069L402 499Z" fill="#FFE5C4"/>
</g>
<path d="M412 488L458.5 462" stroke="#3F5959" stroke-width="2" stroke-linecap="round"/>
<circle cx="431" cy="440" r="7" fill="#FFF2E3"/>
<circle cx="424.5" cy="466.5" r="1.5" fill="#FFF2E3"/>
<circle cx="428.5" cy="464.5" r="1.5" fill="#FFF2E3"/>
<path d="M393 474L401.842 478.672" stroke="#FFF2E3" stroke-width="2" stroke-linecap="round"/>
<path d="M397 468L405.842 472.672" stroke="#FFF2E3" stroke-width="2" stroke-linecap="round"/>
<path d="M401 462L409.842 466.672" stroke="#FFF2E3" stroke-width="2" stroke-linecap="round"/>
<path d="M404 455L412.842 459.672" stroke="#FFF2E3" stroke-width="2" stroke-linecap="round"/>
<path d="M406 448L414.842 452.672" stroke="#FFF2E3" stroke-width="2" stroke-linecap="round"/>
<defs>
<linearGradient id="paint0_linear_1810_415" x1="198" y1="382" x2="198" y2="606" gradientUnits="userSpaceOnUse">
<stop stop-color="#3717FF"/>
<stop offset="0.880764" stop-color="#130574"/>
</linearGradient>
<linearGradient id="paint1_linear_1810_415" x1="307" y1="191" x2="307" y2="415" gradientUnits="userSpaceOnUse">
<stop stop-color="#3717FF"/>
<stop offset="0.880764" stop-color="#130574"/>
</linearGradient>
<linearGradient id="paint2_linear_1810_415" x1="335.267" y1="290.774" x2="328.659" y2="289.323" gradientUnits="userSpaceOnUse">
<stop offset="0.0793971" stop-color="#EAB795"/>
<stop offset="1" stop-color="#EAB795" stop-opacity="0"/>
</linearGradient>
<linearGradient id="paint3_linear_1810_415" x1="338.933" y1="284.839" x2="330.128" y2="283.388" gradientUnits="userSpaceOnUse">
<stop offset="0.0793971" stop-color="#EAB795"/>
<stop offset="1" stop-color="#EAB795" stop-opacity="0"/>
</linearGradient>
<linearGradient id="paint4_linear_1810_415" x1="337.467" y1="279.645" x2="327.933" y2="279.645" gradientUnits="userSpaceOnUse">
<stop offset="0.0793971" stop-color="#EAB795"/>
<stop offset="1" stop-color="#EAB795" stop-opacity="0"/>
</linearGradient>
<linearGradient id="paint5_linear_1810_415" x1="198" y1="0" x2="198" y2="224" gradientUnits="userSpaceOnUse">
<stop stop-color="#3717FF"/>
<stop offset="0.880764" stop-color="#130574"/>
</linearGradient>
</defs>
</svg>
