<svg width="628" height="564" viewBox="0 0 628 564" fill="none" xmlns="http://www.w3.org/2000/svg">
<path d="M0 56C0 50.4772 4.47715 46 10 46H139C144.523 46 149 50.4772 149 56V200C149 205.523 144.523 210 139 210H10C4.47716 210 0 205.523 0 200V56Z" fill="#FBF5F0"/>
<rect x="348" width="116" height="117" rx="10" fill="#FD9CB3"/>
<path d="M443.762 38.2807C443.419 37.8562 443.066 37.4481 442.703 37.0606C441.195 35.4499 439.701 33.7649 438.834 31.7353C436.305 25.8152 429.452 23.2379 423.221 24.8569C420.558 25.549 418.002 25.9831 416.094 25.8523C414.833 25.7658 413.517 25.6498 412.321 26.0573C410.875 26.5502 409.743 27.6914 409.261 29.1416L406.533 37.3569C405.62 40.1078 404.12 42.6272 402.136 44.7408L380.368 67.9365C378.457 69.9729 376.075 71.5089 373.431 72.4096C372.525 72.7665 371.336 73.3068 370.149 73.9639C366.018 76.2506 367.886 79.8795 372.566 79.2585C374.769 78.9662 377.557 78.4491 381.043 77.6044L435.811 57.8838C444.263 54.8406 449.404 45.2712 443.762 38.2807Z" fill="url(#paint0_diamond_1863_114)" stroke="#0B2C8C"/>
<path d="M417.098 38.6588L418.988 38.7658C427.519 39.2488 433.828 46.9006 432.676 55.3674V55.3674" stroke="#0B2C8C" stroke-dasharray="2 2"/>
<path d="M415.828 29.6572C416.609 33.725 412.695 42.3818 409.663 48.0383C408.648 49.9334 407.253 51.591 405.634 53.0052L398.094 59.5893M388.11 68.3086L398.094 59.5893M398.094 59.5893L403.155 65.4288" stroke="#0B2C8C" stroke-dasharray="2 2"/>
<path d="M438.335 36.8134L435.92 37.6365C432.377 38.8437 430.031 30.7565 429.3 26.562" stroke="#0B2C8C" stroke-dasharray="2 2"/>
<path d="M387.634 84.4953C412.226 76.0843 426.072 70.2877 448.374 60.3267C450.784 59.2503 452.345 56.8606 452.362 54.2213C452.391 49.5859 447.861 46.3646 443.576 48.1336C421.432 57.2762 385.639 75.6331 379.436 77.7242C379.272 77.7661 379.106 77.8156 378.937 77.8731C378.483 77.9816 377.968 78.0988 377.407 78.2196C374.427 78.5739 371.705 77.125 370.587 76.2251C369.847 75.556 368.666 74.7839 367.903 75.4262C366.493 76.6123 364.8 78.2795 363.838 79.2739C363.561 80.2911 363.269 81.8939 363.293 83.3983C363.336 86.0004 365.967 87.2043 368.565 87.3529C373.594 87.6406 381.113 87.2633 387.634 84.4953Z" fill="url(#paint1_linear_1863_114)"/>
<path d="M387.634 84.4953C412.226 76.0843 426.072 70.2877 448.374 60.3267C450.784 59.2503 452.345 56.8606 452.362 54.2213V54.2213C452.391 49.5859 447.861 46.3646 443.576 48.1336C420.73 57.5658 383.357 76.8055 378.937 77.8731M387.634 84.4953C381.113 87.2633 373.594 87.6406 368.565 87.3529C365.967 87.2043 363.336 86.0004 363.293 83.3983C363.269 81.8939 363.561 80.2911 363.838 79.2739M387.634 84.4953C386.837 81.5715 383.983 76.1538 378.937 77.8731M363.838 79.2739C366.499 80.4039 375.013 78.8109 378.937 77.8731M363.838 79.2739C364.8 78.2795 366.493 76.6123 367.903 75.4262C368.666 74.7839 369.847 75.556 370.587 76.2251V76.2251C371.894 77.2774 375.394 79.0803 378.937 77.8731" stroke="#0B2C8C"/>
<path d="M383.507 72.3958C382.098 73.4292 382.241 76.5442 382.241 76.5442L405.758 65.4553C405.758 65.4553 384.916 71.3625 383.507 72.3958Z" fill="#FBFBFB"/>
<path d="M382.241 76.5442L381.742 76.5671L381.776 77.3163L382.455 76.9964L382.241 76.5442ZM405.758 65.4553L405.971 65.9076C406.207 65.7966 406.318 65.5236 406.226 65.2799C406.135 65.0362 405.872 64.9033 405.622 64.9743L405.758 65.4553ZM382.241 76.5442C382.741 76.5213 382.741 76.5214 382.741 76.5215C382.741 76.5215 382.741 76.5216 382.741 76.5216C382.741 76.5217 382.741 76.5217 382.741 76.5216C382.741 76.5216 382.741 76.5213 382.741 76.5209C382.741 76.52 382.741 76.5184 382.741 76.5161C382.74 76.5114 382.74 76.5039 382.74 76.4937C382.739 76.4734 382.738 76.4423 382.738 76.4017C382.737 76.3205 382.737 76.2017 382.741 76.0553C382.749 75.7615 382.774 75.3616 382.84 74.9339C382.907 74.504 383.012 74.0612 383.176 73.6745C383.34 73.2851 383.549 72.9852 383.803 72.799L383.211 71.9927C382.761 72.3232 382.459 72.8001 382.254 73.2854C382.048 73.7734 381.926 74.3031 381.852 74.7811C381.778 75.2614 381.75 75.7048 381.741 76.0273C381.737 76.1891 381.737 76.3218 381.738 76.4149C381.739 76.4616 381.739 76.4984 381.74 76.5242C381.741 76.5371 381.741 76.5472 381.741 76.5544C381.741 76.558 381.742 76.5609 381.742 76.563C381.742 76.5641 381.742 76.5649 381.742 76.5656C381.742 76.566 381.742 76.5662 381.742 76.5665C381.742 76.5666 381.742 76.5668 381.742 76.5668C381.742 76.567 381.742 76.5671 382.241 76.5442ZM383.803 72.799C383.841 72.7711 383.958 72.7065 384.189 72.6061C384.406 72.5114 384.693 72.3986 385.041 72.2699C385.737 72.0129 386.659 71.6998 387.733 71.351C389.879 70.6538 392.612 69.8198 395.304 69.0172C397.995 68.2148 400.643 67.4446 402.618 66.8749C403.605 66.59 404.425 66.3554 404.997 66.1919C405.283 66.1102 405.508 66.0463 405.66 66.0028C405.737 65.9811 405.795 65.9645 405.835 65.9533C405.854 65.9477 405.869 65.9435 405.879 65.9406C405.884 65.9392 405.888 65.9381 405.891 65.9374C405.892 65.9371 405.893 65.9368 405.893 65.9366C405.894 65.9365 405.894 65.9365 405.894 65.9364C405.894 65.9364 405.894 65.9364 405.758 65.4553C405.622 64.9743 405.622 64.9743 405.621 64.9743C405.621 64.9744 405.621 64.9745 405.621 64.9745C405.62 64.9747 405.619 64.975 405.618 64.9754C405.615 64.9761 405.611 64.9772 405.606 64.9786C405.596 64.9814 405.581 64.9857 405.562 64.9913C405.522 65.0025 405.463 65.0192 405.387 65.041C405.234 65.0845 405.009 65.1486 404.722 65.2304C404.149 65.394 403.329 65.6289 402.341 65.914C400.364 66.4842 397.713 67.2554 395.018 68.0589C392.323 68.8622 389.582 69.6989 387.424 70.3999C386.345 70.7502 385.408 71.0681 384.694 71.3319C384.338 71.4637 384.032 71.5838 383.79 71.6891C383.561 71.7887 383.349 71.8914 383.211 71.9927L383.803 72.799ZM405.545 65.0031L382.028 76.0919L382.455 76.9964L405.971 65.9076L405.545 65.0031Z" fill="#0B2C8C"/>
<path d="M381.242 64.7227L384.65 67.974" stroke="#0B2C8C" stroke-width="2" stroke-linecap="round"/>
<path d="M383.775 62.0693L387.183 65.3207" stroke="#0B2C8C" stroke-width="2" stroke-linecap="round"/>
<path d="M386.311 59.416L389.718 62.6674" stroke="#0B2C8C" stroke-width="2" stroke-linecap="round"/>
<path d="M388.844 56.7637L392.251 60.015" stroke="#0B2C8C" stroke-width="2" stroke-linecap="round"/>
<path d="M391.379 54.1113L394.787 57.3627" stroke="#0B2C8C" stroke-width="2" stroke-linecap="round"/>
<path d="M393.912 51.458L397.32 54.7093" stroke="#0B2C8C" stroke-width="2" stroke-linecap="round"/>
<path d="M396.447 48.8057L399.855 52.057" stroke="#0B2C8C" stroke-width="2" stroke-linecap="round"/>
<path d="M398.982 46.1523L402.39 49.4037" stroke="#0B2C8C" stroke-width="2" stroke-linecap="round"/>
<path d="M401.516 43.5L404.923 46.7513" stroke="#0B2C8C" stroke-width="2" stroke-linecap="round"/>
<rect x="566" width="116" height="117" rx="10" fill="#564D9A"/>
<rect x="348" y="210" width="203" height="116" rx="10" fill="#FBF5F0"/>
<rect x="50" y="357" width="127" height="117" rx="10" fill="#3EAFA9"/>
<path d="M94.959 445.167C94.959 439.023 103.26 434.042 113.501 434.042C123.741 434.042 132.042 439.023 132.042 445.167" stroke="white" stroke-width="4" stroke-linecap="round" stroke-linejoin="round"/>
<path d="M135.75 423.842C142.299 425.559 146.875 429.479 146.875 434.041" stroke="white" stroke-width="4" stroke-linecap="round" stroke-linejoin="round"/>
<path d="M91.25 423.842C84.7014 425.559 80.125 429.479 80.125 434.041" stroke="white" stroke-width="4" stroke-linecap="round" stroke-linejoin="round"/>
<path d="M113.5 422.917C119.644 422.917 124.625 417.936 124.625 411.792C124.625 405.648 119.644 400.667 113.5 400.667C107.356 400.667 102.375 405.648 102.375 411.792C102.375 417.936 107.356 422.917 113.5 422.917Z" stroke="white" stroke-width="4" stroke-linecap="round" stroke-linejoin="round"/>
<path d="M135.749 408.959C138.025 406.922 139.458 403.962 139.458 400.667C139.458 394.523 134.477 389.542 128.333 389.542C125.483 389.542 122.884 390.613 120.916 392.375" stroke="white" stroke-width="4" stroke-linecap="round" stroke-linejoin="round"/>
<path d="M91.2493 408.959C88.9734 406.922 87.541 403.962 87.541 400.667C87.541 394.523 92.5218 389.542 98.666 389.542C101.515 389.542 104.114 390.613 106.083 392.375" stroke="white" stroke-width="4" stroke-linecap="round" stroke-linejoin="round"/>
<g style="mix-blend-mode:screen">
<rect x="263" y="489" width="66" height="67" rx="10" fill="#F9F9F9"/>
</g>
<g style="mix-blend-mode:screen">
<path d="M147.133 141C147.133 142.031 147.969 142.867 149 142.867C150.031 142.867 150.867 142.031 150.867 141C150.867 139.969 150.031 139.133 149 139.133C147.969 139.133 147.133 139.969 147.133 141ZM346.133 59C346.133 60.0309 346.969 60.8667 348 60.8667C349.031 60.8667 349.867 60.0309 349.867 59C349.867 57.9691 349.031 57.1333 348 57.1333C346.969 57.1333 346.133 57.9691 346.133 59ZM149 141.35H154.075V140.65H149V141.35ZM164.225 141.35H174.375V140.65H164.225V141.35ZM184.525 141.35H194.675V140.65H184.525V141.35ZM204.825 141.35H214.975V140.65H204.825V141.35ZM225.125 141.35H235.275V140.65H225.125V141.35ZM245.425 141.35H250.5V140.65H245.425V141.35ZM250.5 141.35C251.903 141.35 253.241 141.071 254.462 140.564L254.194 139.918C253.056 140.39 251.809 140.65 250.5 140.65V141.35ZM260.064 134.962C260.571 133.741 260.85 132.403 260.85 131H260.15C260.15 132.309 259.89 133.556 259.418 134.694L260.064 134.962ZM260.85 131V125.833H260.15V131H260.85ZM260.85 115.5V105.167H260.15V115.5H260.85ZM260.85 94.8333V84.5H260.15V94.8333H260.85ZM260.85 74.1667V69H260.15V74.1667H260.85ZM260.85 69C260.85 67.6909 261.11 66.4435 261.582 65.3062L260.936 65.0381C260.429 66.2589 260.15 67.5973 260.15 69H260.85ZM266.806 60.0821C267.944 59.6105 269.191 59.35 270.5 59.35V58.65C269.097 58.65 267.759 58.9292 266.538 59.4355L266.806 60.0821ZM270.5 59.35H275.344V58.65H270.5V59.35ZM285.031 59.35H294.719V58.65H285.031V59.35ZM304.406 59.35H314.094V58.65H304.406V59.35ZM323.781 59.35H333.469V58.65H323.781V59.35ZM343.156 59.35H348V58.65H343.156V59.35Z" fill="white"/>
</g>
<g style="mix-blend-mode:screen">
<path d="M346.133 265C346.133 266.031 346.969 266.867 348 266.867C349.031 266.867 349.867 266.031 349.867 265C349.867 263.969 349.031 263.133 348 263.133C346.969 263.133 346.133 263.969 346.133 265ZM175.133 382C175.133 383.031 175.969 383.867 177 383.867C178.031 383.867 178.867 383.031 178.867 382C178.867 380.969 178.031 380.133 177 380.133C175.969 380.133 175.133 380.969 175.133 382ZM177 382.35H182.019V381.65H177V382.35ZM192.056 382.35H202.093V381.65H192.056V382.35ZM212.13 382.35H222.168V381.65H212.13V382.35ZM232.205 382.35H242.242V381.65H232.205V382.35ZM252.28 382.35H262.317V381.65H252.28V382.35ZM272.354 382.35H277.373V381.65H272.354V382.35ZM277.373 382.35C278.775 382.35 280.114 382.071 281.335 381.564L281.067 380.918C279.929 381.39 278.682 381.65 277.373 381.65V382.35ZM286.937 375.962C287.443 374.741 287.723 373.403 287.723 372H287.023C287.023 373.309 286.762 374.556 286.291 375.694L286.937 375.962ZM287.723 372V367.15H287.023V372H287.723ZM287.723 357.45V347.75H287.023V357.45H287.723ZM287.723 338.05V328.35H287.023V338.05H287.723ZM287.723 318.65V308.95H287.023V318.65H287.723ZM287.723 299.25V289.55H287.023V299.25H287.723ZM287.723 279.85V275H287.023V279.85H287.723ZM287.723 275C287.723 273.691 287.983 272.444 288.455 271.306L287.808 271.038C287.302 272.259 287.023 273.597 287.023 275H287.723ZM293.679 266.082C294.816 265.61 296.064 265.35 297.373 265.35V264.65C295.97 264.65 294.632 264.929 293.411 265.436L293.679 266.082ZM297.373 265.35H301.592V264.65H297.373V265.35ZM310.03 265.35H318.467V264.65H310.03V265.35ZM326.905 265.35H335.343V264.65H326.905V265.35ZM343.781 265.35H348V264.65H343.781V265.35Z" fill="white"/>
</g>
<g style="mix-blend-mode:screen">
<path d="M406.133 118C406.133 119.031 406.969 119.867 408 119.867C409.031 119.867 409.867 119.031 409.867 118C409.867 116.969 409.031 116.133 408 116.133C406.969 116.133 406.133 116.969 406.133 118ZM406.133 210C406.133 211.031 406.969 211.867 408 211.867C409.031 211.867 409.867 211.031 409.867 210C409.867 208.969 409.031 208.133 408 208.133C406.969 208.133 406.133 208.969 406.133 210ZM407.65 118V122.6H408.35V118H407.65ZM407.65 131.8V141H408.35V131.8H407.65ZM407.65 150.2V159.4H408.35V150.2H407.65ZM407.65 168.6V177.8H408.35V168.6H407.65ZM407.65 187V196.2H408.35V187H407.65ZM407.65 205.4V210H408.35V205.4H407.65Z" fill="white"/>
</g>
<g style="mix-blend-mode:screen">
<path d="M463.133 60C463.133 61.0309 463.969 61.8667 465 61.8667C466.031 61.8667 466.867 61.0309 466.867 60C466.867 58.9691 466.031 58.1333 465 58.1333C463.969 58.1333 463.133 58.9691 463.133 60ZM563.133 60C563.133 61.0309 563.969 61.8667 565 61.8667C566.031 61.8667 566.867 61.0309 566.867 60C566.867 58.9691 566.031 58.1333 565 58.1333C563.969 58.1333 563.133 58.9691 563.133 60ZM465 60.35H470V59.65H465V60.35ZM480 60.35H490V59.65H480V60.35ZM500 60.35H510V59.65H500V60.35ZM520 60.35H530V59.65H520V60.35ZM540 60.35H550V59.65H540V60.35ZM560 60.35H565V59.65H560V60.35Z" fill="white"/>
</g>
<path d="M416.32 284.4C414.267 284.4 412.36 284.04 410.6 283.32C408.84 282.6 407.307 281.6 406 280.32C404.72 279.013 403.72 277.48 403 275.72C402.28 273.96 401.92 272.053 401.92 270C401.92 267.947 402.28 266.04 403 264.28C403.72 262.52 404.72 261 406 259.72C407.307 258.413 408.84 257.4 410.6 256.68C412.36 255.96 414.267 255.6 416.32 255.6C417.733 255.6 419.093 255.773 420.4 256.12C421.733 256.44 422.92 256.933 423.96 257.6C424.147 257.733 424.28 257.893 424.36 258.08C424.467 258.24 424.52 258.413 424.52 258.6C424.52 258.973 424.4 259.28 424.16 259.52C423.92 259.733 423.667 259.84 423.4 259.84C423.267 259.84 423.133 259.827 423 259.8C422.893 259.747 422.787 259.693 422.68 259.64C421.773 259.133 420.787 258.733 419.72 258.44C418.653 258.147 417.52 258 416.32 258C414.027 258 411.987 258.52 410.2 259.56C408.413 260.6 407.013 262.027 406 263.84C404.987 265.653 404.48 267.707 404.48 270C404.48 272.293 404.987 274.347 406 276.16C407.013 277.973 408.413 279.4 410.2 280.44C411.987 281.48 414.027 282 416.32 282C417.52 282 418.72 281.827 419.92 281.48C421.147 281.133 422.2 280.667 423.08 280.08L422.88 280.92V271.72L423.48 272.28H416.56C416.213 272.28 415.92 272.16 415.68 271.92C415.44 271.68 415.32 271.4 415.32 271.08C415.32 270.707 415.44 270.413 415.68 270.2C415.92 269.987 416.213 269.88 416.56 269.88H424.2C424.547 269.88 424.827 270 425.04 270.24C425.28 270.453 425.4 270.733 425.4 271.08V280.72C425.4 280.933 425.347 281.133 425.24 281.32C425.133 281.507 424.987 281.667 424.8 281.8C423.627 282.6 422.307 283.24 420.84 283.72C419.4 284.173 417.893 284.4 416.32 284.4ZM446.933 259.08L437.213 283.24C437.106 283.507 436.959 283.707 436.773 283.84C436.586 283.973 436.373 284.04 436.133 284.04C435.759 284.04 435.479 283.947 435.293 283.76C435.106 283.547 434.999 283.293 434.973 283C434.946 282.867 434.959 282.707 435.013 282.52L445.572 256.68C445.706 256.387 445.866 256.187 446.053 256.08C446.266 255.947 446.506 255.88 446.773 255.88C447.039 255.88 447.266 255.96 447.453 256.12C447.666 256.253 447.826 256.44 447.933 256.68L458.453 282.4C458.506 282.56 458.533 282.72 458.533 282.88C458.533 283.253 458.413 283.547 458.173 283.76C457.933 283.947 457.653 284.04 457.332 284.04C457.066 284.04 456.826 283.973 456.613 283.84C456.426 283.68 456.279 283.48 456.173 283.24L446.213 258.92L446.933 259.08ZM439.533 275.92L440.533 273.56H452.933L453.413 275.92H439.533ZM489.951 256C490.298 256 490.564 256.107 490.751 256.32C490.964 256.533 491.071 256.8 491.071 257.12V282.72C491.071 283.12 490.938 283.44 490.671 283.68C490.431 283.893 490.151 284 489.831 284C489.671 284 489.498 283.973 489.311 283.92C489.124 283.84 488.978 283.733 488.871 283.6L471.031 259.56L471.711 259.2V282.92C471.711 283.213 471.604 283.467 471.391 283.68C471.178 283.893 470.911 284 470.591 284C470.244 284 469.964 283.893 469.751 283.68C469.564 283.467 469.471 283.213 469.471 282.92V257.2C469.471 256.8 469.591 256.507 469.831 256.32C470.071 256.107 470.338 256 470.631 256C470.791 256 470.964 256.04 471.151 256.12C471.338 256.173 471.484 256.28 471.591 256.44L489.231 280.2L488.831 280.92V257.12C488.831 256.8 488.938 256.533 489.151 256.32C489.391 256.107 489.658 256 489.951 256Z" fill="black"/>
<path d="M57.96 111.39L40.95 153.67C40.7633 154.137 40.5067 154.487 40.18 154.72C39.8533 154.953 39.48 155.07 39.06 155.07C38.4067 155.07 37.9167 154.907 37.59 154.58C37.2633 154.207 37.0767 153.763 37.03 153.25C36.9833 153.017 37.0067 152.737 37.1 152.41L55.58 107.19C55.8133 106.677 56.0933 106.327 56.42 106.14C56.7933 105.907 57.2133 105.79 57.68 105.79C58.1467 105.79 58.5433 105.93 58.87 106.21C59.2433 106.443 59.5233 106.77 59.71 107.19L78.12 152.2C78.2133 152.48 78.26 152.76 78.26 153.04C78.26 153.693 78.05 154.207 77.63 154.58C77.21 154.907 76.72 155.07 76.16 155.07C75.6933 155.07 75.2733 154.953 74.9 154.72C74.5733 154.44 74.3167 154.09 74.13 153.67L56.7 111.11L57.96 111.39ZM45.01 140.86L46.76 136.73H68.46L69.3 140.86H45.01ZM101.812 152.83C101.766 153.437 101.509 153.95 101.042 154.37C100.622 154.79 100.132 155 99.5723 155C98.9189 155 98.3823 154.79 97.9623 154.37C97.5889 153.95 97.4023 153.437 97.4023 152.83V108.17C97.4023 107.563 97.6123 107.05 98.0323 106.63C98.4523 106.21 98.9889 106 99.6423 106C100.202 106 100.692 106.21 101.112 106.63C101.579 107.05 101.812 107.563 101.812 108.17V152.83Z" fill="black"/>
<path d="M303.527 511.017L315.462 522.951L303.527 534.885" stroke="black" stroke-linecap="round" stroke-linejoin="round"/>
<path d="M289.206 534.885L277.271 522.951L289.206 511.017" stroke="black" stroke-linecap="round" stroke-linejoin="round"/>
<path d="M450 546V554C450 559.523 454.477 564 460 564H529.286L485.807 531.214L480.682 527.282C476.672 524.205 470.997 524.604 467.457 528.211L450 546Z" fill="#3EAFA9"/>
<path fill-rule="evenodd" clip-rule="evenodd" d="M450 493C450 487.477 454.477 483 460 483H526C531.523 483 536 487.477 536 493V556.607L499.17 529.775C495.028 526.757 489.234 527.405 485.807 531.214V531.214L480.682 527.282C476.672 524.205 470.997 524.604 467.457 528.211L450 546V493Z" fill="url(#paint2_linear_1863_114)"/>
<path d="M529.286 564V564C532.994 564 536 560.994 536 557.286V556.607L499.17 529.775C495.028 526.757 489.234 527.405 485.807 531.214V531.214L529.286 564Z" fill="#EAEAEA"/>
<g style="mix-blend-mode:screen">
<path d="M451.69 326C451.69 327.031 452.526 327.867 453.557 327.867C454.588 327.867 455.424 327.031 455.424 326C455.424 324.969 454.588 324.133 453.557 324.133C452.526 324.133 451.69 324.969 451.69 326ZM491.133 482.283C491.133 483.314 491.969 484.149 493 484.149C494.031 484.149 494.867 483.314 494.867 482.283C494.867 481.252 494.031 480.416 493 480.416C491.969 480.416 491.133 481.252 491.133 482.283ZM327.133 525C327.133 526.031 327.969 526.867 329 526.867C330.031 526.867 330.867 526.031 330.867 525C330.867 523.969 330.031 523.133 329 523.133C327.969 523.133 327.133 523.969 327.133 525ZM453.207 326V331.318H453.907V326H453.207ZM453.207 341.954V352.59H453.907V341.954H453.207ZM453.207 363.226V373.862H453.907V363.226H453.207ZM453.207 384.497V395.133H453.907V384.497H453.207ZM453.207 405.769V411.087H453.907V405.769H453.207ZM453.557 411.437H460.918V410.737H453.557V411.437ZM475.639 411.437H483V410.737H475.639V411.437ZM483 411.437C484.309 411.437 485.556 411.698 486.694 412.169L486.962 411.523C485.741 411.017 484.403 410.737 483 410.737V411.437ZM491.918 417.393C492.39 418.531 492.65 419.778 492.65 421.087H493.35C493.35 419.685 493.071 418.346 492.564 417.125L491.918 417.393ZM492.65 421.087V426.187H493.35V421.087H492.65ZM492.65 436.386V446.585H493.35V436.386H492.65ZM492.65 456.785V466.984H493.35V456.785H492.65ZM492.65 477.183V482.283H493.35V477.183H492.65ZM329 525.35H335.081V524.65H329V525.35ZM347.242 525.35H359.403V524.65H347.242V525.35ZM371.565 525.35H377.646V524.65H371.565V525.35ZM377.646 525.35C379.048 525.35 380.387 525.071 381.608 524.564L381.339 523.918C380.202 524.39 378.955 524.65 377.646 524.65V525.35ZM387.21 518.962C387.716 517.741 387.996 516.403 387.996 515H387.296C387.296 516.309 387.035 517.556 386.563 518.694L387.21 518.962ZM387.996 515V510.304H387.296V515H387.996ZM387.996 500.913V491.522H387.296V500.913H387.996ZM387.996 482.131V472.739H387.296V482.131H387.996ZM387.996 463.348V453.957H387.296V463.348H387.996ZM387.996 444.565V435.174H387.296V444.565H387.996ZM387.996 425.783V421.087H387.296V425.783H387.996ZM387.996 421.087C387.996 419.778 388.256 418.531 388.728 417.393L388.081 417.125C387.575 418.346 387.296 419.685 387.296 421.087H387.996ZM393.952 412.169C395.089 411.698 396.336 411.437 397.646 411.437V410.737C396.243 410.737 394.904 411.017 393.684 411.523L393.952 412.169ZM397.646 411.437H402.305V410.737H397.646V411.437ZM411.623 411.437H420.942V410.737H411.623V411.437ZM430.261 411.437H439.579V410.737H430.261V411.437ZM448.898 411.437H453.557V410.737H448.898V411.437Z" fill="white"/>
</g>
<defs>
<radialGradient id="paint0_diamond_1863_114" cx="0" cy="0" r="1" gradientUnits="userSpaceOnUse" gradientTransform="translate(437.45 24.9834) rotate(142.688) scale(127.816 295.582)">
<stop offset="0.00280135" stop-color="#FFA9BE"/>
<stop offset="1" stop-color="white"/>
</radialGradient>
<linearGradient id="paint1_linear_1863_114" x1="407.118" y1="68.2705" x2="430.574" y2="130.073" gradientUnits="userSpaceOnUse">
<stop offset="0.0733166" stop-color="white"/>
<stop offset="0.437422" stop-color="#010101"/>
</linearGradient>
<linearGradient id="paint2_linear_1863_114" x1="493" y1="483" x2="493" y2="564" gradientUnits="userSpaceOnUse">
<stop offset="0.383333" stop-color="#65B2FF"/>
<stop offset="1" stop-color="#73B9FF" stop-opacity="0.71"/>
</linearGradient>
</defs>
</svg>
