<svg width="48" height="44" viewBox="0 0 48 44" fill="none" xmlns="http://www.w3.org/2000/svg">
<path d="M30.3281 24.0188C31.9207 25.1056 33.5133 24.2589 34.2698 23.5705C36.0601 21.9412 36.3352 20.1386 36.0247 18.6384M34.7078 15.9482C35.2126 16.5296 35.7883 17.4964 36.0247 18.6384M36.0247 18.6384C36.723 16.845 38.3574 16.0977 39.0874 15.9482" stroke="#1ABCFE" stroke-linecap="round" stroke-linejoin="round"/>
<path d="M25.5508 22.8676V11.0642M25.5508 11.0642C25.5508 8.79794 29.8376 6.78078 31.523 5.99389M25.5508 11.0642C25.5508 5.39856 25.5508 5.8707 26.9297 3.98215C30.6069 0.205061 34.2841 1.77885 35.6631 3.03788C37.9808 5.41867 38.0871 7.30368 37.2497 8.70368M30.1473 20.5071C29.228 17.989 28.4925 12.6696 32.9052 11.5365C34.4048 11.1311 36.3599 10.1912 37.2497 8.70368M37.2497 8.70368C47.3797 13.6139 45.0093 19.2481 42.5578 21.4514M42.5578 21.4514C38.5129 21.4514 38.1145 24.2842 38.421 25.7006M42.5578 21.4514C43.9422 22.3045 44.8536 23.2747 45.4157 24.2842M43.0175 32.7826C46.235 31.3662 47.0931 27.2969 45.4157 24.2842M43.0175 32.7826H27.1434M43.0175 32.7826C43.4771 34.6712 40.6804 37.0494 38.8806 37.504M45.4157 24.2842V24.2842C44.7354 27.1541 41.418 28.0613 38.4685 28.0613H27.9397M38.8806 37.504H27.9397M38.8806 37.504V37.504C39.8348 41.4244 33.5872 42.2254 29.5524 42.2254H27.1434" stroke="#A259FF" stroke-width="2" stroke-linecap="round" stroke-linejoin="round"/>
<circle cx="25.9487" cy="28.0347" r="1.99074" fill="#1ABCFE"/>
<circle cx="25.9487" cy="32.646" r="1.99074" fill="#1ABCFE"/>
<circle cx="25.9487" cy="37.2583" r="1.99074" fill="#1ABCFE"/>
<circle cx="25.9487" cy="42.0064" r="1.99074" fill="#1ABCFE"/>
<path d="M21.5 41.3125C21.5 42.7968 20.2921 44.0173 18.8194 43.8323C14.1056 43.2401 9.69217 41.0978 6.2972 37.7028C2.26517 33.6708 -1.58623e-07 28.2022 0 22.5C1.58623e-07 16.7978 2.26517 11.3292 6.2972 7.2972C9.69217 3.90224 14.1056 1.75991 18.8194 1.16768C20.2921 0.982655 21.5 2.20323 21.5 3.6875C21.5 5.17177 20.2885 6.35215 18.8248 6.59839C15.5406 7.15091 12.4839 8.71194 10.0979 11.0979C7.07388 14.1219 5.375 18.2234 5.375 22.5C5.375 26.7766 7.07388 30.8781 10.0979 33.9021C12.4839 36.2881 15.5406 37.8491 18.8248 38.4016C20.2885 38.6479 21.5 39.8282 21.5 41.3125Z" fill="#1ABCFE"/>
</svg>
