<svg width="183" height="175" viewBox="0 0 183 175" fill="none" xmlns="http://www.w3.org/2000/svg">
<rect x="41.6348" width="141.25" height="132.848" rx="20" fill="#E3E3E3"/>
<path d="M110 0H163C174.046 0 183 8.9543 183 20V113C183 124.046 174.046 133 163 133H110V0Z" fill="#EFEFEF"/>
<path d="M0.152344 123.923V133.328C0.152344 144.374 9.10664 153.328 20.1523 153.328H130.375L58.9627 99.7687L53.0097 95.2257C45.0064 89.1179 33.7105 89.9113 26.6395 97.0778L0.152344 123.923Z" fill="#FFD469"/>
<path fill-rule="evenodd" clip-rule="evenodd" d="M0.152344 41.0049C0.152344 29.9592 9.10665 21.0049 20.1523 21.0049H121.402C132.448 21.0049 141.402 29.9592 141.402 41.0049V141.251L80.9807 97.4674C74.1296 92.5028 64.6391 93.4948 58.9627 99.7687L53.0097 95.2257C45.0064 89.1179 33.7105 89.9113 26.6395 97.0778L0.152344 123.923V41.0049Z" fill="#FFD469"/>
<path d="M130.375 153.328C136.465 153.328 141.402 148.391 141.402 142.301V141.251L80.9807 97.4674C74.1296 92.5028 64.6391 93.4948 58.9627 99.7687L130.375 153.328Z" fill="#EAEAEA"/>
<path d="M70.5156 21.0049H121.403C132.449 21.0049 141.403 29.9592 141.403 41.0049V133.328C141.403 144.374 132.449 153.328 121.403 153.328H70.5156V21.0049Z" fill="black" fill-opacity="0.08"/>
<path d="M26.4062 144.926V154.331C26.4062 165.377 35.3605 174.331 46.4062 174.331H156.629L85.2166 120.772L79.2637 116.229C71.2603 110.121 59.9644 110.914 52.8934 118.081L26.4062 144.926Z" fill="#FD9CB5"/>
<path fill-rule="evenodd" clip-rule="evenodd" d="M26.4062 62.0078C26.4062 50.9621 35.3606 42.0078 46.4062 42.0078H147.656C158.702 42.0078 167.656 50.9621 167.656 62.0078V162.254L107.235 118.47C100.384 113.506 90.893 114.498 85.2166 120.772L79.2637 116.229C71.2603 110.121 59.9644 110.914 52.8934 118.081L26.4062 144.926V62.0078Z" fill="url(#paint0_linear_1757_181)"/>
<path d="M156.629 174.331C162.719 174.331 167.656 169.394 167.656 163.304V162.254L107.235 118.47C100.384 113.506 90.893 114.498 85.2166 120.772L156.629 174.331Z" fill="#EAEAEA"/>
<path d="M96.7695 42.0078H147.657C158.703 42.0078 167.657 50.9621 167.657 62.0078V164.331C167.657 169.854 163.18 174.331 157.657 174.331H96.7695V42.0078Z" fill="black" fill-opacity="0.15"/>
<defs>
<linearGradient id="paint0_linear_1757_181" x1="97.0312" y1="42.0078" x2="97.0312" y2="174.331" gradientUnits="userSpaceOnUse">
<stop offset="0.383333" stop-color="#4233BB"/>
<stop offset="1" stop-color="#160C5C"/>
</linearGradient>
</defs>
</svg>
